<?xml version="1.0" encoding="utf-8"?>

<!DOCTYPE svg PUBLIC "-//W3C//DTD SVG 1.1//EN" "http://www.w3.org/Graphics/SVG/1.1/DTD/svg11.dtd">
<!-- Uploaded to: SVG Repo, www.svgrepo.com, Generator: SVG Repo Mixer Tools -->
<svg height="800px" width="800px" version="1.1" id="_x32_" xmlns="http://www.w3.org/2000/svg" xmlns:xlink="http://www.w3.org/1999/xlink" 
	 viewBox="0 0 512 512"  xml:space="preserve">
<style type="text/css">
	.st0{fill:#000000;}
</style>
<g>
	<path class="st0" d="M511.382,213.158c-4.625-14.212-26.144-11.156-27.611-15.588c-1.425-4.45,17.792-14.626,13.174-28.839
		c-4.625-14.223-66.57-64.89-137.148-33.152c-2.548,1.144-4.997,2.228-7.362,3.267c0.253-2.562,0.533-5.215,0.828-7.984
		c8.373-76.933-58.955-120.216-73.905-120.216c-14.942,0-18.69,21.414-23.357,21.442c-4.668-0.028-8.408-21.442-23.358-21.442
		c-14.949,0-82.285,43.255-73.912,120.184c0.302,2.783,0.583,5.44,0.835,8.012c-2.358-1.035-4.794-2.116-7.334-3.256
		c-70.585-31.734-132.551,18.918-137.176,33.145c-4.618,14.212,14.598,24.389,13.174,28.839
		c-1.467,4.429-22.993,1.372-27.611,15.585C-4,227.377,16.333,304.777,92.091,320.59c2.737,0.569,5.355,1.13,7.875,1.681
		c-1.713,1.926-3.496,3.909-5.362,5.969C42.61,385.56,71.632,460.152,83.732,468.943c12.086,8.784,27.702-6.338,31.499-3.618
		c3.762,2.765-5.797,22.291,6.289,31.078c12.107,8.787,91.998,13.37,130.446-53.793c1.39-2.425,2.73-4.741,4.029-6.973
		c1.305,2.225,2.639,4.53,4.028,6.948c38.44,67.16,118.352,62.605,130.452,53.818c12.086-8.787,2.534-28.309,6.288-31.078
		c3.798-2.723,19.414,12.402,31.506,3.618c12.093-8.79,41.142-83.355-10.85-140.675c-1.881-2.074-3.671-4.064-5.39-5.994
		c2.52-0.547,5.123-1.105,7.854-1.677C495.639,304.784,516,227.377,511.382,213.158z M350.026,283.238
		c-4.665,10.478-12.456,21.949-22.576,31.902c-20.183,19.837-45.446,30.889-70.204,30.986v-0.342h-1.14H256h-0.171
		c-25.466,0-50.558-10.686-70.684-30.009c-10.104-9.696-18.156-20.789-22.837-31.104c-9.721-0.049-17.594-7.946-17.594-17.683
		c0-9.766,7.922-17.688,17.691-17.688c9.762,0,17.683,7.921,17.683,17.688c0,5.014-2.092,9.534-5.439,12.753
		c7.092,15.098,24.36,35.664,48.89,46.174c-5.251-7.026-10.185-15.843-14.72-26.39c-6.904-16.084-12.31-35.362-14.776-51.743
		c-7.222-2.218-12.489-8.947-12.489-16.906c0-9.765,7.905-17.687,17.675-17.687c9.77,0,17.675,7.922,17.675,17.687
		c0,6.86-3.948,12.807-9.656,15.738c2.182,14.007,6.725,31.621,13.621,47.672c8.492,19.767,17.806,32.704,28.12,36.913v-98.878
		c-8.255-2.781-13.734-10.38-13.734-19.316c0-11.296,9.159-20.452,20.451-20.452s20.158,9.156,20.158,20.452
		c0,9.004-4.177,16.645-14.492,19.372v98.862c10.315-4.214,20.451-17.415,29.008-37.654c6.928-16.372,12.139-34.268,14.32-48.438
		c-5.723-2.93-9.64-8.878-9.64-15.745c0-9.77,7.922-17.687,17.684-17.687c9.77,0,17.692,7.917,17.692,17.687
		c0,7.95-5.252,14.675-12.473,16.902c-2.451,16.539-7.857,36.087-14.777,52.451c-3.794,8.977-8.727,18.669-14.817,26.925
		c13.221-5.846,23.194-14.142,29.235-20.077c9.339-9.184,16.023-19.1,19.776-27.298c-3.371-3.22-5.471-7.759-5.471-12.79
		c0-9.766,7.914-17.683,17.683-17.683s17.691,7.918,17.691,17.683C367.285,275.227,359.722,283.152,350.026,283.238z"/>
</g>
</svg>